<svg xmlns="http://www.w3.org/2000/svg" viewBox="0 0 20.69 28.36"><defs><style>.cls-1,.cls-2{fill:#b7b7b7;}.cls-2{fill-rule:evenodd;}</style></defs><g id="Layer_2" data-name="Layer 2"><g id="Layer_1-2" data-name="Layer 1"><g id="Group_142" data-name="Group 142"><path id="Path_1973" data-name="Path 1973" class="cls-1" d="M2.24,3.45H4.3V5.21H2.24a.49.49,0,0,0-.48.48V26.12a.48.48,0,0,0,.48.48H18.45a.48.48,0,0,0,.48-.48V5.69a.49.49,0,0,0-.48-.48H16.39V3.45h4.3V28.36H0V3.45Z"/><path id="Path_1974" data-name="Path 1974" class="cls-2" d="M5.67,1.86H8.09a2.3,2.3,0,0,1,4.51,0H16v4.2a.86.86,0,0,1-.92.76H5.67a.84.84,0,0,1-.92-.76V1.86Z"/><g id="Group_142-2" data-name="Group 142-2"><rect id="Rectangle_88" data-name="Rectangle 88" class="cls-1" x="4.24" y="9.57" width="12.2" height="1.76"/><rect id="Rectangle_89" data-name="Rectangle 89" class="cls-1" x="4.24" y="13.93" width="12.2" height="1.76"/><rect id="Rectangle_90" data-name="Rectangle 90" class="cls-1" x="4.24" y="18.28" width="12.2" height="1.76"/><rect id="Rectangle_91" data-name="Rectangle 91" class="cls-1" x="4.24" y="22.64" width="12.2" height="1.76"/></g></g></g></g></svg>
